<svg width="20" height="20" viewBox="0 0 20 20" fill="none" xmlns="http://www.w3.org/2000/svg">
<path d="M19.5821 0.396729V2.08673C19.5838 2.71469 19.4609 3.33675 19.2206 3.91692C18.9803 4.49709 18.6273 5.02385 18.1821 5.46673L5.75213 17.8967C5.30925 18.3419 4.78249 18.6949 4.20232 18.9352C3.62215 19.1755 3.00009 19.2984 2.37213 19.2967H0.682129L19.5821 0.396729Z" fill="#D1D1D1"/>
<path d="M19.5822 6.70679V8.39679C19.5827 9.02459 19.4594 9.64633 19.2191 10.2263C18.9789 10.8064 18.6265 11.3332 18.1822 11.7768L12.0622 17.8968C11.6186 18.3411 11.0918 18.6935 10.5117 18.9337C9.93173 19.174 9.30999 19.2973 8.68219 19.2968H6.99219L19.5822 6.70679Z" fill="#D1D1D1"/>
<path d="M19.5823 12.8268V14.5168C19.5829 15.1446 19.4595 15.7663 19.2192 16.3463C18.979 16.9264 18.6266 17.4532 18.1823 17.8968C17.7388 18.3411 17.2119 18.6935 16.6319 18.9337C16.0518 19.174 15.4301 19.2973 14.8023 19.2968H13.1123L19.5823 12.8268Z" fill="#D1D1D1"/>
</svg>
