<svg width="31" height="22" viewBox="0 0 31 22" fill="none" xmlns="http://www.w3.org/2000/svg">
<path d="M24.8294 13.6667C24.5134 13.6667 24.2499 13.5602 24.0388 13.3473C23.8277 13.1343 23.7222 12.8704 23.7222 12.5556V9.44448H20.611C20.2962 9.44448 20.0323 9.33763 19.8194 9.12392C19.6064 8.9102 19.4999 8.64539 19.4999 8.32948C19.4999 8.01357 19.6064 7.75006 19.8194 7.53895C20.0323 7.32784 20.2962 7.22228 20.611 7.22228H23.7222V4.11115C23.7222 3.79635 23.829 3.53246 24.0427 3.31948C24.2564 3.10653 24.5212 3.00005 24.8372 3.00005C25.1531 3.00005 25.4166 3.10653 25.6277 3.31948C25.8388 3.53246 25.9444 3.79635 25.9444 4.11115V7.22228H29.0555C29.3703 7.22228 29.6342 7.32914 29.8472 7.54285C30.0601 7.75656 30.1666 8.02137 30.1666 8.33728C30.1666 8.65319 30.0601 8.91671 29.8472 9.12782C29.6342 9.33893 29.3703 9.44448 29.0555 9.44448H25.9444V12.5556C25.9444 12.8704 25.8375 13.1343 25.6238 13.3473C25.4101 13.5602 25.1453 13.6667 24.8294 13.6667ZM11.4999 10.9778C10.0333 10.9778 8.81473 10.4926 7.84435 9.52228C6.874 8.5519 6.38882 7.33338 6.38882 5.86672C6.38882 4.40005 6.874 3.18154 7.84435 2.21118C8.81473 1.2408 10.0333 0.755615 11.4999 0.755615C12.9666 0.755615 14.1851 1.2408 15.1555 2.21118C16.1258 3.18154 16.611 4.40005 16.611 5.86672C16.611 7.33338 16.1258 8.5519 15.1555 9.52228C14.1851 10.4926 12.9666 10.9778 11.4999 10.9778ZM1.94435 21.6667C1.62955 21.6667 1.36566 21.5602 1.15269 21.3473C0.93973 21.1343 0.833252 20.8704 0.833252 20.5556V18.3334C0.833252 17.563 1.0314 16.8612 1.42769 16.2279C1.824 15.5945 2.3666 15.1186 3.05549 14.8C4.62586 14.0815 6.08022 13.5649 7.41855 13.25C8.75691 12.9352 10.1162 12.7779 11.4963 12.7779C12.8765 12.7779 14.237 12.9352 15.5777 13.25C16.9184 13.5649 18.3666 14.0815 19.9222 14.8C20.611 15.1334 21.1573 15.613 21.561 16.2389C21.9647 16.8649 22.1666 17.563 22.1666 18.3334V20.5556C22.1666 20.8704 22.0601 21.1343 21.8472 21.3473C21.6342 21.5602 21.3703 21.6667 21.0555 21.6667H1.94435ZM3.05545 19.4445H19.9444V18.3334C19.9444 18.0149 19.8648 17.7149 19.7055 17.4334C19.5462 17.1519 19.3073 16.9408 18.9888 16.8C17.5518 16.0963 16.2629 15.6204 15.1222 15.3723C13.9814 15.1241 12.774 15 11.4999 15C10.2259 15 9.01844 15.1278 7.87769 15.3834C6.73695 15.6389 5.44066 16.1112 3.98882 16.8C3.69991 16.9408 3.47212 17.1519 3.30545 17.4334C3.13879 17.7149 3.05545 18.0149 3.05545 18.3334V19.4445ZM11.4999 8.75562C12.3221 8.75562 13.0092 8.47969 13.561 7.92785C14.1129 7.37598 14.3888 6.68894 14.3888 5.86672C14.3888 5.04449 14.1129 4.35746 13.561 3.80562C13.0092 3.25375 12.3221 2.97782 11.4999 2.97782C10.6777 2.97782 9.99066 3.25375 9.43882 3.80562C8.88695 4.35746 8.61102 5.04449 8.61102 5.86672C8.61102 6.68894 8.88695 7.37598 9.43882 7.92785C9.99066 8.47969 10.6777 8.75562 11.4999 8.75562Z" fill="white"/>
</svg>
